<svg width="221" height="28" viewBox="0 0 221 28" fill="none" xmlns="http://www.w3.org/2000/svg">
<path fill-rule="evenodd" clip-rule="evenodd" d="M32.0865 0.461931C34.0187 0.461931 35.8149 0.816015 37.5295 1.49696C39.244 2.23237 40.6864 3.18568 41.9383 4.38412C43.1902 5.6098 44.1971 7.05338 44.9047 8.68763C45.6395 10.3219 45.9661 12.1195 45.9661 13.9989C45.9661 15.8783 45.6123 17.6487 44.9047 19.3101C44.1699 20.9444 43.1902 22.388 41.9383 23.6137C40.6864 24.8394 39.244 25.7926 37.5295 26.4736C35.8149 27.209 34.0187 27.5358 32.0865 27.5358H21.7175V0.461914L32.0865 0.461931ZM35.5155 21.7616C36.5497 21.353 37.4206 20.7265 38.1554 19.9639C38.8901 19.2012 39.4073 18.2752 39.8427 17.2674C40.2509 16.2324 40.4414 15.1702 40.4414 13.999C40.4414 12.8277 40.2509 11.711 39.8427 10.676C39.4345 9.64093 38.8901 8.76938 38.1554 8.00674C37.4206 7.24409 36.5497 6.64486 35.5155 6.1818C34.4813 5.77325 33.3383 5.5281 32.0864 5.5281H27.2421V22.4425H32.0864C33.3383 22.4425 34.4813 22.2246 35.5155 21.7616V21.7616Z" fill="white"/>
<path d="M83.9046 0.461914V27.5086H78.3799V0.461914H83.9046Z" fill="white"/>
<path d="M109.649 16.9144C108.833 20.0194 106.601 22.6615 102.192 22.6615C96.4229 22.6615 94.5992 18.1946 94.5992 14C94.5992 9.80545 96.45 5.33852 102.192 5.33852C106.601 5.33852 108.833 7.95328 109.649 11.0856H115.31C114.194 4.43968 109.295 0 102.41 0C94.5721 0 88.8571 5.74709 88.8571 14C88.8571 22.2257 94.545 28 102.41 28C109.295 28 114.194 23.5875 115.31 16.9416H109.649V16.9144Z" fill="white"/>
<path d="M154.826 0.461914V27.5086H149.301V0.461914H154.826Z" fill="white"/>
<path d="M125.461 0.461914V11.4386H137.599V0.461914H143.15V27.5086H137.626V16.2869H125.461V27.5086H119.936V0.461914H125.461Z" fill="white"/>
<path fill-rule="evenodd" clip-rule="evenodd" d="M8.27338 0C3.70123 0 0 3.70429 0 8.28015C0 12.856 3.70124 16.5603 8.27338 16.5603C12.8454 16.5603 16.5467 12.856 16.5467 8.28015C16.5195 3.70429 12.8182 0 8.27338 0ZM8.27348 11.6576C6.39563 11.6576 4.87158 10.1323 4.87158 8.25287C4.87158 6.37348 6.39563 4.8482 8.27348 4.8482C10.1513 4.8482 11.6753 6.3735 11.6753 8.25287C11.6481 10.1323 10.1241 11.6576 8.27348 11.6576Z" fill="white"/>
<path fill-rule="evenodd" clip-rule="evenodd" d="M68.2553 27.5086H74.1064L64.9078 0.461914H61.9142H59.4104H56.4167L47.1093 27.5086H52.9605L54.7838 21.9522H66.4322L68.2553 27.5086ZM56.3623 17.213L60.6351 4.27527L64.8806 17.213H56.3623Z" fill="white"/>
<path fill-rule="evenodd" clip-rule="evenodd" d="M172.026 10.6244C170.703 10.6244 169.601 10.1756 168.721 9.2778C167.84 8.38006 167.4 7.27397 167.4 5.95955C167.4 4.65374 167.842 3.5498 168.727 2.64775C169.612 1.7457 170.737 1.29468 172.103 1.29468C172.885 1.29468 173.542 1.4214 174.075 1.67483C174.608 1.92826 175.115 2.29123 175.596 2.76374L174.41 4.12969C174.024 3.77745 173.661 3.52189 173.321 3.36295C172.982 3.20402 172.572 3.12454 172.091 3.12454C171.335 3.12454 170.71 3.3973 170.216 3.94283C169.722 4.48836 169.475 5.16059 169.475 5.95955C169.475 6.74992 169.722 7.42001 170.216 7.96982C170.71 8.51964 171.335 8.79454 172.091 8.79454C172.572 8.79454 172.988 8.70863 173.341 8.53681C173.693 8.365 174.066 8.09868 174.462 7.73785L175.724 9.09093C175.235 9.61498 174.704 10.0016 174.133 10.2507C173.562 10.4999 172.859 10.6244 172.026 10.6244H172.026ZM183.038 9.58069C182.32 10.2766 181.429 10.6245 180.364 10.6245C179.298 10.6245 178.411 10.2787 177.703 9.58712C176.994 8.89556 176.639 8.04291 176.639 7.02917C176.639 6.02403 176.998 5.17353 177.715 4.47768C178.433 3.78181 179.324 3.43388 180.389 3.43388C181.455 3.43388 182.342 3.77966 183.05 4.47124C183.759 5.16281 184.114 6.01546 184.114 7.02919C184.114 8.03433 183.755 8.88484 183.038 9.58069H183.038ZM180.389 8.93634C180.931 8.93634 181.365 8.75378 181.691 8.38867C182.017 8.02356 182.181 7.57039 182.181 7.02916C182.181 6.50511 182.011 6.05623 181.672 5.68254C181.332 5.30884 180.896 5.12198 180.364 5.12198C179.822 5.12198 179.389 5.30454 179.062 5.66965C178.736 6.03476 178.572 6.48793 178.572 7.02916C178.572 7.55321 178.742 8.00208 179.081 8.37578C179.421 8.7495 179.857 8.93634 180.389 8.93634H180.389ZM185.531 10.4699V3.56276H187.49V4.54212C188.065 3.80329 188.744 3.43388 189.526 3.43388C190.445 3.43388 191.094 3.79899 191.472 4.52923C192.099 3.79899 192.855 3.43388 193.74 3.43388C194.479 3.43388 195.052 3.65081 195.46 4.08464C195.868 4.51849 196.072 5.14776 196.072 5.97249V10.4698H194.113V6.61681C194.113 5.68039 193.731 5.21218 192.967 5.21218C192.597 5.21218 192.307 5.33245 192.097 5.57301C191.886 5.81356 191.781 6.16149 191.781 6.61681V10.4698H189.822V6.61681C189.822 5.68039 189.44 5.21218 188.675 5.21218C188.306 5.21218 188.016 5.33245 187.806 5.57301C187.595 5.81356 187.49 6.16149 187.49 6.61681V10.4698L185.531 10.4699ZM198.108 10.4699V5.23805H197.296V3.62724H198.108V3.18911C198.108 2.4417 198.293 1.88329 198.662 1.51388C199.023 1.15306 199.551 0.972656 200.247 0.972656C200.771 0.972656 201.235 1.03709 201.639 1.16595V2.78963C201.33 2.67795 201.033 2.6221 200.75 2.6221C200.277 2.6221 200.041 2.87124 200.041 3.36951V3.64012H201.626V5.23803H200.067V10.4699L198.108 10.4699ZM208.63 9.58069C207.913 10.2766 207.021 10.6245 205.956 10.6245C204.891 10.6245 204.004 10.2787 203.295 9.58712C202.586 8.89556 202.232 8.04291 202.232 7.02917C202.232 6.02403 202.591 5.17353 203.308 4.47768C204.025 3.78181 204.917 3.43388 205.982 3.43388C207.047 3.43388 207.934 3.77966 208.643 4.47124C209.352 5.16281 209.706 6.01546 209.706 7.02919C209.706 8.03433 209.347 8.88484 208.63 9.58069ZM205.982 8.93634C206.523 8.93634 206.957 8.75378 207.283 8.38867C207.61 8.02356 207.773 7.57039 207.773 7.02916C207.773 6.50511 207.603 6.05623 207.264 5.68254C206.925 5.30884 206.489 5.12198 205.956 5.12198C205.415 5.12198 204.981 5.30454 204.654 5.66965C204.328 6.03476 204.165 6.48793 204.165 7.02916C204.165 7.55321 204.334 8.00208 204.674 8.37578C205.013 8.7495 205.449 8.93634 205.982 8.93634ZM211.123 10.4698V3.5627H213.082V4.95443C213.529 3.89774 214.263 3.39089 215.286 3.43384V5.48279H215.183C214.512 5.48279 213.995 5.68682 213.63 6.09489C213.265 6.50295 213.082 7.11077 213.082 7.91831V10.4698H211.123ZM218.842 10.5859C218.198 10.5859 217.702 10.4291 217.354 10.1155C217.006 9.80197 216.832 9.26718 216.832 8.51118V5.23803H216.007V3.56281H216.832V1.79738H218.791V3.56281H220.415V5.23803H218.791V8.18902C218.791 8.63575 219.001 8.85911 219.422 8.85911C219.766 8.85911 220.088 8.77749 220.389 8.61427V10.1864C219.942 10.4527 219.427 10.5859 218.842 10.5859H218.842Z" fill="white"/>
</svg>
